<svg width="41" height="36" viewBox="0 0 41 36" fill="none" xmlns="http://www.w3.org/2000/svg">
<path d="M40.3716 32.3865L31.0771 24.2254C33.3148 21.6098 34.5228 18.426 34.5187 15.1546C34.5187 6.79839 26.7761 0 17.2594 0C7.74261 0 0 6.79839 0 15.1546C0 23.5107 7.74261 30.3091 17.2594 30.3091C20.9851 30.3127 24.6111 29.252 27.5901 27.2872L36.8846 35.4482C37.3551 35.8175 37.9687 36.0147 38.5995 35.9992C39.2303 35.9836 39.8305 35.7567 40.2767 35.3649C40.7229 34.9731 40.9814 34.4461 40.999 33.8923C41.0167 33.3384 40.7922 32.7996 40.3716 32.3865ZM4.93125 15.1546C4.93125 13.0136 5.65428 10.9208 7.00891 9.14069C8.36354 7.36058 10.2889 5.97315 12.5416 5.15385C14.7943 4.33456 17.273 4.12019 19.6645 4.53787C22.0559 4.95554 24.2525 5.98649 25.9767 7.50035C27.7008 9.01421 28.8749 10.943 29.3506 13.0428C29.8263 15.1426 29.5821 17.319 28.6491 19.297C27.716 21.2749 26.1358 22.9655 24.1085 24.155C22.0811 25.3444 19.6976 25.9792 17.2594 25.9792C13.9909 25.9758 10.8575 24.8342 8.5464 22.805C6.23528 20.7757 4.93517 18.0244 4.93125 15.1546Z" fill="#CDA274"/>
</svg>
